Coordinates
version=1
nRows=17
nColumns=24
inDegrees=yes

Units are S.I. units (second, meters, Newtons, ...)
If the header above contains a line with 'inDegrees', this indicates whether rotational values are in degrees (yes) or radians (no).

endheader
time	pelvis_tilt	pelvis_list	pelvis_rotation	pelvis_tx	pelvis_ty	pelvis_tz	hip_flexion_r	hip_adduction_r	hip_rotation_r	knee_angle_r	ankle_angle_r	subtalar_angle_r	mtp_angle_r	hip_flexion_l	hip_adduction_l	hip_rotation_l	knee_angle_l	ankle_angle_l	subtalar_angle_l	mtp_angle_l	lumbar_extension	lumbar_bending	lumbar_rotation
      0.00000000	     10.53344420	      2.38506292	   -181.02896561	      0.23062451	      0.84903154	     -1.20598548	     17.00138670	    -10.28164143	    -31.90213684	    -10.61647453	     -1.66792110	     11.68159132	      0.00000000	     15.89734570	    -15.91636275	    -32.73541345	     -9.06790028	     -0.91615657	     13.91738493	      0.00000000	      2.37626525	      1.07925735	     -0.50727798
      0.00500000	     10.53199116	      2.39273474	   -181.01611422	      0.23064893	      0.84898902	     -1.20601134	     16.99448131	    -10.27351054	    -31.91011941	    -10.61108094	     -1.67529505	     11.67854993	      0.00000000	     15.90400711	    -15.92762850	    -32.71064689	     -9.05187896	     -0.85907803	     13.98757336	      0.00000000	      2.37348499	      1.08021320	     -0.51863707
      0.01000000	     10.53065906	      2.37313505	   -181.00621480	      0.23067206	      0.84896133	     -1.20602228	     16.98610238	    -10.29123301	    -31.89486747	    -10.59652316	     -1.68409775	     11.68952525	      0.00000000	     15.92225663	    -15.91445713	    -32.73039730	     -9.11303027	     -0.87058196	     13.97536492	      0.00000000	      2.37802492	      1.07142898	     -0.54576531
      0.01500000	     10.52940437	      2.37597363	   -180.99804748	      0.23068913	      0.84896135	     -1.20604644	     16.98524558	    -10.28820571	    -31.89236393	    -10.59927737	     -1.68489609	     11.69078251	      0.00000000	     15.92580948	    -15.91818600	    -32.73178331	     -9.10943551	     -0.86860692	     13.97494499	      0.00000000	      2.37685481	      1.06144763	     -0.54630759
      0.02000000	     10.52208908	      2.40934803	   -181.00742862	      0.23068040	      0.84895345	     -1.20606230	     16.98474388	    -10.25207497	    -31.89757739	    -10.61788097	     -1.67054640	     11.69007085	      0.00000000	     15.91478889	    -15.96103181	    -32.74255356	     -9.08067100	     -0.84419422	     14.01631670	      0.00000000	      2.37232261	      1.09350513	     -0.53204087
      0.02500000	     10.51968007	      2.41659719	   -181.01767129	      0.23068289	      0.84896439	     -1.20605723	     16.98789653	    -10.24612320	    -31.91571117	    -10.62656370	     -1.66205062	     11.67969691	      0.00000000	     15.90694571	    -15.96983363	    -32.76081064	     -9.07892474	     -0.84640348	     14.01162095	      0.00000000	      2.36998335	      1.09955853	     -0.51730810
      0.03000000	     10.51852467	      2.41500432	   -181.02209365	      0.23069329	      0.84894710	     -1.20604972	     16.98636874	    -10.24775670	    -31.91396365	    -10.62686879	     -1.66108545	     11.68065731	      0.00000000	     15.90495361	    -15.96810044	    -32.75992170	     -9.08717565	     -0.84843097	     14.01148925	      0.00000000	      2.37226403	      1.10224774	     -0.51759492
      0.03500000	     10.51182699	      2.40526634	   -181.02163248	      0.23073146	      0.84892792	     -1.20608935	     16.98050100	    -10.25596024	    -31.90907633	    -10.62512304	     -1.66576133	     11.68460987	      0.00000000	     15.91151274	    -15.96667408	    -32.75750265	     -9.12148564	     -0.84838016	     14.00805992	      0.00000000	      2.36331982	      1.08547613	     -0.51095083
      0.04000000	     10.51006529	      2.38004825	   -181.00546884	      0.23073964	      0.84885871	     -1.20611617	     16.95509315	    -10.27101514	    -31.86790052	    -10.56171825	     -1.61624904	     11.70109829	      0.00000000	     15.92150130	    -15.94408670	    -32.76130687	     -9.14310160	     -0.83804503	     14.00697359	      0.00000000	      2.36775180	      1.04554067	     -0.51861641
      0.04500000	     10.50220860	      2.39089431	   -181.02821333	      0.23075818	      0.84892605	     -1.20611698	     16.98639843	    -10.27062173	    -31.88900559	    -10.64700090	     -1.65968471	     11.68425892	      0.00000000	     15.90305184	    -15.95470216	    -32.76810610	     -9.14873025	     -0.85837111	     13.99165688	      0.00000000	      2.35175984	      1.06313540	     -0.50586549
      0.05000000	     10.50142313	      2.39234998	   -181.02883281	      0.23074643	      0.84892786	     -1.20607827	     16.98648295	    -10.27155881	    -31.88929326	    -10.64727333	     -1.65981367	     11.68406027	      0.00000000	     15.90318326	    -15.95532003	    -32.76872546	     -9.14829585	     -0.85875756	     13.99104990	      0.00000000	      2.35241563	      1.06278489	     -0.50526230
      0.05500000	     10.49754900	      2.40112928	   -181.03734591	      0.23075058	      0.84894386	     -1.20610283	     16.99414560	    -10.26681855	    -31.91522854	    -10.67168660	     -1.65405290	     11.66794882	      0.00000000	     15.89561671	    -15.96897790	    -32.79970991	     -9.14450917	     -0.87660016	     13.96009305	      0.00000000	      2.35476924	      1.06423709	     -0.46837277
      0.06000000	     10.49654683	      2.40035699	   -181.03435383	      0.23078552	      0.84894568	     -1.20616500	     16.99421128	    -10.26079497	    -31.91196230	    -10.67276374	     -1.65822585	     11.67090817	      0.00000000	     15.89860369	    -15.97099897	    -32.79696206	     -9.14641901	     -0.87613505	     13.96018876	      0.00000000	      2.35220772	      1.04804650	     -0.47190653
      0.06500000	     10.48769479	      2.34829031	   -181.00367990	      0.23080782	      0.84885967	     -1.20615579	     16.95627950	    -10.30719555	    -31.81469703	    -10.60288249	     -1.62141730	     11.70091331	      0.00000000	     15.90278649	    -15.91283463	    -32.76442901	     -9.15202660	     -0.82420554	     13.98487942	      0.00000000	      2.34591557	      0.98110027	     -0.51314027
      0.07000000	     10.48653144	      2.34867300	   -181.00383191	      0.23083213	      0.84884944	     -1.20616066	     16.95682635	    -10.30716683	    -31.81489794	    -10.60269729	     -1.62133075	     11.70070871	      0.00000000	     15.90285582	    -15.91223777	    -32.76451391	     -9.15213911	     -0.82409712	     13.98488367	      0.00000000	      2.34617934	      0.98091002	     -0.51304390
      0.07500000	     10.48258276	      2.37776331	   -181.03651257	      0.23084487	      0.84890934	     -1.20613434	     16.98760579	    -10.28864776	    -31.88570347	    -10.67923017	     -1.67522670	     11.66831576	      0.00000000	     15.88567714	    -15.94570386	    -32.78894086	     -9.14243472	     -0.85194406	     13.95778480	      0.00000000	      2.34363316	      1.02831210	     -0.47982847
      0.08000000	     10.48402700	      2.39310773	   -181.05489222	      0.23083821	      0.84892470	     -1.20610630	     16.99785864	    -10.27517216	    -31.88719870	    -10.69176190	     -1.65992312	     11.67067448	      0.00000000	     15.86989806	    -15.95610918	    -32.78502994	     -9.11816733	     -0.86259768	     13.95067517	      0.00000000	      2.34878982	      1.05267804	     -0.46556556
